<svg width="100" height="100" viewBox="0 0 100 100" fill="none" xmlns="http://www.w3.org/2000/svg">
<circle cx="50" cy="50" r="50" fill="#074650"/>
<path fill-rule="evenodd" clipRule="evenodd" d="M78.9161 35.9361C79.6387 36.6118 80 37.4322 80 38.3974C80 39.3626 79.6387 40.183 78.9161 40.8587L50.8904 67.064L45.6258 71.9865C44.9033 72.6622 44.0258 73 42.9936 73C41.9613 73 41.0839 72.6622 40.3613 71.9865L35.0968 67.064L21.0839 53.9613C20.3613 53.2856 20 52.4652 20 51.5C20 50.5348 20.3613 49.7144 21.0839 49.0387L26.3484 44.1162C27.071 43.4405 27.9484 43.1027 28.9807 43.1027C30.0129 43.1027 30.8903 43.4405 31.6129 44.1162L42.9936 54.7938L68.3871 31.0135C69.1096 30.3378 69.9871 30 71.0193 30C72.0516 30 72.929 30.3378 73.6516 31.0135L78.9161 35.9361Z" fill="#002632"/>
</svg>
