<svg width="107" height="100" viewBox="0 0 107 100" fill="none" xmlns="http://www.w3.org/2000/svg">
<circle cx="52" cy="50" r="50" fill="#E9AAAA"/>
<path fill-rule="evenodd" clipRule="evenodd" d="M41.0803 45.9928H64.0089V38.4392C64.0089 35.6591 62.8894 33.2855 60.6502 31.3184C58.4111 29.3513 55.7093 28.3678 52.5447 28.3678C49.38 28.3678 46.6782 29.3513 44.4391 31.3184C42.1999 33.2855 41.0804 35.6591 41.0804 38.4392L41.0803 45.9928ZM78.3394 49.7696V72.4303C78.3394 73.4794 77.9214 74.3711 77.0855 75.1055C76.2495 75.8399 75.2344 76.2071 74.0403 76.2071H31.0493C29.8551 76.2071 28.84 75.8399 28.0041 75.1055C27.1681 74.3711 26.7502 73.4794 26.7502 72.4303V49.7696C26.7502 48.7205 27.1681 47.8287 28.0041 47.0944C28.84 46.36 29.8551 45.9928 31.0493 45.9928H32.4823V38.4392C32.4823 33.6133 34.4527 29.4693 38.3936 26.0073C42.3344 22.5452 47.0515 20.8142 52.5448 20.8142C58.0381 20.8142 62.7552 22.5452 66.696 26.0073C70.6369 29.4693 72.6073 33.6133 72.6073 38.4392V45.9928H74.0403C75.2345 45.9928 76.2496 46.36 77.0855 47.0944C77.9215 47.8287 78.3394 48.7205 78.3394 49.7696H78.3394Z" fill="#D66162"/>
</svg>
